<?xml version="1.0" standalone="no"?>
<!DOCTYPE svg PUBLIC "-//W3C//DTD SVG 20010904//EN"
 "http://www.w3.org/TR/2001/REC-SVG-20010904/DTD/svg10.dtd">
<svg version="1.0" xmlns="http://www.w3.org/2000/svg"
 width="1355.000000pt" height="420.000000pt" viewBox="0 0 1355.000000 420.000000"
 preserveAspectRatio="xMidYMid meet">

<g transform="translate(0.000000,420.000000) scale(0.100000,-0.100000)"
fill="#000000" stroke="none">
<path d="M1629 3864 c-245 -44 -431 -187 -554 -428 -48 -92 -68 -153 -94 -280
l-16 -82 -77 -70 c-234 -213 -398 -509 -455 -818 -23 -124 -23 -387 0 -516 29
-158 88 -309 185 -475 45 -76 50 -76 26 0 -60 194 -87 463 -65 652 29 251 129
492 281 678 207 253 474 409 792 461 l106 17 -37 61 c-56 92 -115 205 -110
210 8 8 287 11 295 3 4 -4 -23 -66 -59 -137 -37 -72 -67 -132 -67 -134 0 -2
69 -6 153 -9 174 -7 253 -22 421 -78 215 -73 366 -161 526 -308 49 -45 90 -78
90 -73 0 16 -104 214 -139 267 -45 65 -122 154 -209 239 -61 60 -71 74 -77
115 -9 63 -50 181 -92 266 -123 246 -330 404 -578 441 -109 17 -147 16 -246
-2z m-78 -268 c43 -30 69 -80 69 -134 0 -96 -118 -155 -200 -99 -91 61 -89
181 3 237 43 27 85 25 128 -4z m544 4 c62 -38 84 -134 45 -197 -49 -81 -168
-84 -229 -7 -26 33 -28 111 -6 155 34 65 126 88 190 49z"/>
<path d="M1435 3535 c-19 -18 -25 -35 -25 -69 0 -37 5 -48 31 -70 40 -34 74
-33 110 3 33 33 37 67 14 111 -28 55 -89 67 -130 25z m48 -50 c1 -5 -6 -11
-15 -13 -11 -2 -18 3 -18 13 0 17 30 18 33 0z m61 -42 c4 -9 0 -23 -9 -32 -13
-14 -17 -14 -31 0 -14 15 -14 18 1 33 21 20 31 20 39 -1z"/>
<path d="M1982 3553 c-7 -3 -19 -18 -27 -33 -44 -85 18 -170 99 -136 44 18 63
69 46 121 -6 19 -20 40 -30 45 -19 10 -66 12 -88 3z m28 -68 c0 -8 -6 -15 -14
-15 -17 0 -28 14 -19 24 12 12 33 6 33 -9z m50 -55 c0 -15 -7 -20 -25 -20 -24
0 -34 18 -18 33 15 15 43 7 43 -13z"/>
<path d="M6848 3623 c10 -4 10 -8 0 -21 -9 -12 -6 -11 10 2 27 24 27 26 0 25
-13 0 -17 -3 -10 -6z"/>
<path d="M9067 3583 c-4 -3 -7 -17 -7 -30 0 -20 5 -23 34 -23 30 0 34 3 38 30
4 28 2 30 -27 30 -17 0 -35 -3 -38 -7z"/>
<path d="M6185 3570 l-30 -8 32 -1 c17 0 34 -7 36 -13 3 -7 6 -3 6 10 1 12 -2
21 -6 21 -5 -1 -21 -5 -38 -9z"/>
<path d="M8537 3530 c4 -16 14 -20 44 -20 21 0 41 5 44 10 3 6 -5 10 -19 10
-14 0 -28 5 -31 10 -3 6 -14 10 -25 10 -13 0 -17 -5 -13 -20z"/>
<path d="M6232 3510 c0 -14 2 -19 5 -12 2 6 2 18 0 25 -3 6 -5 1 -5 -13z"/>
<path d="M6745 3520 c-4 -6 3 -10 14 -10 25 0 27 6 6 13 -8 4 -17 2 -20 -3z"/>
<path d="M6181 3474 c0 -11 3 -14 6 -6 3 7 2 16 -1 19 -3 4 -6 -2 -5 -13z"/>
<path d="M8208 3433 c19 -8 3 -23 -26 -24 -26 -1 -26 -1 4 -8 43 -11 54 -19
70 -55 13 -30 13 -30 15 -6 1 14 2 33 2 43 0 10 5 16 11 14 18 -6 19 -74 2
-109 -16 -31 -16 -31 4 -13 15 13 20 31 20 65 0 54 -13 73 -59 89 -33 11 -69
15 -43 4z"/>
<path d="M6738 3423 c12 -2 30 -2 40 0 9 3 -1 5 -23 4 -22 0 -30 -2 -17 -4z"/>
<path d="M7010 3420 c-11 -8 -7 -9 15 -4 23 4 26 3 15 -5 -8 -6 -11 -11 -7
-11 4 0 -5 -11 -20 -25 l-28 -26 35 21 c39 22 109 27 142 9 18 -10 24 -8 35 7
12 16 11 21 -4 31 -20 15 -53 17 -53 4 0 -12 -78 -12 -86 0 -7 12 -25 11 -44
-1z"/>
<path d="M7540 3415 c0 -8 2 -15 4 -15 2 0 6 7 10 15 3 8 1 15 -4 15 -6 0 -10
-7 -10 -15z"/>
<path d="M7786 3415 c-3 -8 -18 -15 -33 -16 -27 0 -27 -1 -5 -9 41 -17 46 -47
28 -172 -18 -124 -19 -143 -6 -113 8 19 9 19 9 1 1 -16 3 -17 18 -5 15 13 16
11 10 -11 -4 -14 -7 -30 -7 -37 0 -6 -12 -14 -27 -16 -27 -4 -27 -4 3 -6 l31
-1 23 140 c25 152 23 226 -6 247 -23 17 -31 16 -38 -2z"/>
<path d="M8079 3409 c-19 -16 -20 -18 -4 -10 34 17 51 31 39 31 -7 0 -22 -9
-35 -21z"/>
<path d="M8440 3411 c0 -14 10 -20 46 -25 26 -3 61 -6 78 -6 l31 1 -25 14
c-14 8 -47 15 -75 17 -38 1 -29 3 35 8 l85 6 -87 2 c-80 2 -88 0 -88 -17z"/>
<path d="M9036 3399 c-8 -41 -6 -61 3 -29 6 19 13 24 33 22 19 -2 27 3 31 18
4 17 0 20 -28 20 -28 0 -33 -4 -39 -31z"/>
<path d="M9283 3423 c26 -2 68 -2 95 0 26 2 4 3 -48 3 -52 0 -74 -1 -47 -3z"/>
<path d="M9674 3414 c-18 -14 -18 -14 6 -3 31 14 36 19 24 19 -6 0 -19 -7 -30
-16z"/>
<path d="M9854 3415 c8 -8 23 -15 33 -15 14 1 13 4 -7 15 -33 19 -45 19 -26 0z"/>
<path d="M7649 3403 c-13 -17 -13 -17 6 -3 11 8 22 16 24 17 2 2 0 3 -6 3 -6
0 -17 -8 -24 -17z"/>
<path d="M9230 3399 c0 -9 67 -19 125 -18 45 0 48 1 25 11 -26 12 -150 17
-150 7z"/>
<path d="M9820 3399 c-14 -4 -19 -7 -11 -8 8 -1 24 -10 36 -21 17 -16 22 -17
22 -6 0 8 -4 13 -8 10 -4 -2 -9 4 -11 14 -2 14 -8 17 -28 11z"/>
<path d="M6201 3384 c0 -11 3 -14 6 -6 3 7 2 16 -1 19 -3 4 -6 -2 -5 -13z"/>
<path d="M9738 3393 c7 -3 16 -2 19 1 4 3 -2 6 -13 5 -11 0 -14 -3 -6 -6z"/>
<path d="M10453 3393 c9 -2 23 -2 30 0 6 3 -1 5 -18 5 -16 0 -22 -2 -12 -5z"/>
<path d="M10859 3369 l-24 -20 28 17 c15 9 27 18 27 20 0 8 -8 4 -31 -17z"/>
<path d="M7532 3360 c0 -14 2 -19 5 -12 2 6 2 18 0 25 -3 6 -5 1 -5 -13z"/>
<path d="M9081 3354 c0 -11 3 -14 6 -6 3 7 2 16 -1 19 -3 4 -6 -2 -5 -13z"/>
<path d="M8589 3343 c-13 -16 -12 -17 4 -4 16 13 21 21 13 21 -2 0 -10 -8 -17
-17z"/>
<path d="M10131 3334 c0 -11 3 -14 6 -6 3 7 2 16 -1 19 -3 4 -6 -2 -5 -13z"/>
<path d="M9419 3313 l-24 -28 28 24 c25 23 32 31 24 31 -2 0 -14 -12 -28 -27z"/>
<path d="M10076 3304 c-4 -20 -5 -38 -3 -40 3 -3 8 11 11 32 4 20 5 38 3 40
-3 3 -8 -11 -11 -32z"/>
<path d="M6272 3315 c0 -11 3 -29 8 -40 11 -25 11 1 0 35 -6 20 -8 21 -8 5z"/>
<path d="M8618 3323 c-17 -4 -34 -33 -19 -33 4 0 16 9 26 20 10 11 16 19 14
19 -2 -1 -11 -3 -21 -6z"/>
<path d="M6221 3310 c0 -8 6 -37 14 -65 l15 -50 -7 45 c-6 48 -21 96 -22 70z"/>
<path d="M9883 3270 c0 -30 2 -43 4 -27 2 15 2 39 0 55 -2 15 -4 2 -4 -28z"/>
<path d="M10122 3280 c0 -14 2 -19 5 -12 2 6 2 18 0 25 -3 6 -5 1 -5 -13z"/>
<path d="M7512 3245 c0 -16 2 -22 5 -12 2 9 2 23 0 30 -3 6 -5 -1 -5 -18z"/>
<path d="M8040 3247 c0 -8 -7 -14 -15 -14 -8 0 -15 4 -15 8 0 4 -9 7 -19 6
-34 -2 -36 -102 -2 -165 12 -22 69 -58 78 -49 2 3 -9 11 -25 18 -30 13 -61 49
-42 49 5 0 10 10 11 23 1 21 1 21 9 -3 5 -15 6 0 3 38 l-6 62 72 0 c49 0 77 5
86 14 12 12 11 15 -8 20 -43 11 -127 7 -127 -7z"/>
<path d="M11122 3240 c0 -14 2 -19 5 -12 2 6 2 18 0 25 -3 6 -5 1 -5 -13z"/>
<path d="M11228 3251 c11 -7 11 -9 -2 -14 -9 -4 -16 -3 -16 1 0 4 -9 8 -20 9
-12 1 -20 -4 -20 -14 0 -9 -6 -13 -14 -10 -24 9 -24 -37 -1 -71 l22 -32 -5 50
-5 50 84 1 c64 1 75 3 49 9 -19 4 -27 8 -18 9 9 0 20 6 23 11 4 6 -12 10 -42
10 -30 0 -43 -3 -35 -9z"/>
<path d="M6692 3210 c0 -14 2 -19 5 -12 2 6 2 18 0 25 -3 6 -5 1 -5 -13z"/>
<path d="M9561 3185 c-1 -58 22 -111 59 -134 24 -15 24 -14 -3 13 -21 23 -25
32 -16 43 9 10 8 16 -5 26 -9 7 -20 32 -25 57 l-9 45 -1 -50z"/>
<path d="M9611 3184 c0 -21 4 -48 9 -59 5 -12 6 1 3 35 -7 66 -13 79 -12 24z"/>
<path d="M6932 3185 c0 -16 2 -22 5 -12 2 9 2 23 0 30 -3 6 -5 -1 -5 -18z"/>
<path d="M7496 3174 c-4 -20 -5 -38 -3 -40 3 -3 8 11 11 32 4 20 5 38 3 40 -3
3 -8 -11 -11 -32z"/>
<path d="M11112 3185 c0 -16 2 -22 5 -12 2 9 2 23 0 30 -3 6 -5 -1 -5 -18z"/>
<path d="M10526 3185 c-9 -26 -7 -32 5 -12 6 10 9 21 6 23 -2 3 -7 -2 -11 -11z"/>
<path d="M6682 3155 c0 -16 2 -22 5 -12 2 9 2 23 0 30 -3 6 -5 -1 -5 -18z"/>
<path d="M10051 3164 c0 -11 3 -14 6 -6 3 7 2 16 -1 19 -3 4 -6 -2 -5 -13z"/>
<path d="M9194 3108 l-19 -23 23 19 c12 11 22 21 22 23 0 8 -8 2 -26 -19z"/>
<path d="M6672 3100 c0 -14 2 -19 5 -12 2 6 2 18 0 25 -3 6 -5 1 -5 -13z"/>
<path d="M10041 3104 c0 -11 3 -14 6 -6 3 7 2 16 -1 19 -3 4 -6 -2 -5 -13z"/>
<path d="M6721 3094 c0 -11 3 -14 6 -6 3 7 2 16 -1 19 -3 4 -6 -2 -5 -13z"/>
<path d="M10476 3094 c-9 -24 -7 -28 9 -14 17 14 20 30 6 30 -5 0 -12 -7 -15
-16z"/>
<path d="M10571 3094 c0 -11 3 -14 6 -6 3 7 2 16 -1 19 -3 4 -6 -2 -5 -13z"/>
<path d="M11782 3098 c-16 -21 -23 -56 -13 -63 6 -3 8 0 5 9 -3 8 4 24 15 35
18 18 25 20 44 10 20 -11 21 -11 8 4 -16 20 -45 22 -59 5z"/>
<path d="M8230 3084 l-25 -15 25 7 c28 7 35 12 29 18 -2 2 -15 -2 -29 -10z"/>
<path d="M11541 3078 c-5 -13 -6 -29 -4 -35 9 -24 18 -13 18 22 0 41 -3 43
-14 13z"/>
<path d="M6369 3068 c-7 -13 -17 -26 -23 -30 -8 -5 -7 -8 1 -8 7 0 19 14 28
30 9 17 13 30 11 30 -3 0 -11 -10 -17 -22z"/>
<path d="M6900 3076 c0 -2 8 -10 18 -17 15 -13 16 -12 3 4 -13 16 -21 21 -21
13z"/>
<path d="M8570 3071 l55 -6 -45 -12 c-25 -7 -67 -14 -95 -16 -27 -2 -4 -4 53
-5 l102 -2 0 25 c0 24 -2 25 -62 23 l-63 -1 55 -6z"/>
<path d="M9167 3073 c-4 -3 -7 -15 -7 -25 0 -17 11 -18 140 -18 77 0 140 3
140 8 0 4 -29 5 -65 4 -46 -3 -65 0 -65 8 0 9 -5 9 -17 -1 -14 -12 -15 -12 -9
-1 7 11 4 12 -12 3 -11 -6 -40 -11 -63 -11 -36 0 -41 2 -36 20 5 21 4 24 -6
13z"/>
<path d="M9278 3073 c12 -2 30 -2 40 0 9 3 -1 5 -23 4 -22 0 -30 -2 -17 -4z"/>
<path d="M9428 3073 c7 -3 16 -2 19 1 4 3 -2 6 -13 5 -11 0 -14 -3 -6 -6z"/>
<path d="M6660 3051 c0 -17 6 -21 30 -21 25 0 30 4 29 23 -1 16 -2 18 -6 5 -2
-10 -13 -18 -24 -18 -11 0 -18 4 -14 9 3 5 1 12 -5 16 -5 3 -10 -3 -10 -14z"/>
<path d="M7526 3054 c-4 -11 -14 -15 -31 -12 -14 3 -25 1 -25 -3 0 -5 16 -9
35 -9 28 0 35 4 35 20 0 24 -6 26 -14 4z"/>
<path d="M10031 3053 c-1 -19 4 -23 29 -23 25 0 30 4 30 23 -1 20 -2 20 -11 5
-5 -10 -16 -18 -24 -18 -7 0 -16 8 -18 18 -4 13 -5 11 -6 -5z"/>
<path d="M10868 3063 c7 -3 16 -2 19 1 4 3 -2 6 -13 5 -11 0 -14 -3 -6 -6z"/>
<path d="M7130 3050 c-9 -6 -10 -10 -3 -10 6 0 15 5 18 10 8 12 4 12 -15 0z"/>
<path d="M8977 3053 c-15 -14 -6 -23 23 -23 17 0 30 4 30 9 0 4 -12 6 -26 3
-19 -3 -25 -1 -20 7 8 12 3 15 -7 4z"/>
<path d="M10560 3051 c0 -5 -10 -12 -22 -14 -20 -4 -19 -4 5 -6 18 -1 27 4 27
14 0 8 -2 15 -5 15 -3 0 -5 -4 -5 -9z"/>
<path d="M10808 3033 c7 -3 16 -2 19 1 4 3 -2 6 -13 5 -11 0 -14 -3 -6 -6z"/>
<path d="M11348 3033 c7 -3 16 -2 19 1 4 3 -2 6 -13 5 -11 0 -14 -3 -6 -6z"/>
<path d="M1790 2914 c-514 -48 -918 -412 -1025 -924 -35 -167 -29 -384 15
-562 62 -251 230 -504 440 -662 83 -63 300 -187 300 -172 0 2 -28 20 -61 40
-180 107 -355 299 -457 501 -90 181 -126 364 -119 610 4 161 6 177 41 288 85
275 239 501 449 658 133 99 252 153 442 200 97 24 104 27 60 27 -27 -1 -66 -3
-85 -4z"/>
<path d="M2210 1755 l0 -605 80 0 80 0 0 220 c0 246 8 300 53 367 84 124 272
140 374 32 63 -67 67 -87 71 -366 l4 -253 79 0 80 0 -3 268 -3 267 -37 77
c-43 90 -104 155 -182 193 -123 60 -291 50 -396 -25 -15 -11 -31 -20 -34 -20
-3 0 -6 101 -6 225 l0 225 -80 0 -80 0 0 -605z"/>
<path d="M4194 2347 c-3 -8 -4 -91 -2 -185 l3 -172 -92 0 -93 0 0 -75 0 -75
90 0 90 0 0 -345 0 -345 80 0 80 0 2 343 3 342 60 1 c33 1 79 2 103 3 l42 1 0
75 0 75 -105 0 -104 0 0 183 0 182 -76 3 c-57 2 -77 -1 -81 -11z"/>
<path d="M5677 2269 l-107 -91 47 -54 c25 -30 50 -53 54 -52 4 2 55 43 113 93
l104 90 -46 51 c-26 29 -50 52 -53 53 -3 1 -53 -40 -112 -90z"/>
<path d="M11875 2233 c-91 -47 -107 -169 -33 -240 26 -25 37 -28 96 -28 51 0
73 5 94 20 86 65 80 197 -12 246 -42 23 -104 24 -145 2z m151 -47 c29 -29 34
-41 34 -81 0 -40 -5 -52 -34 -81 -28 -28 -42 -34 -76 -34 -78 0 -120 43 -120
121 0 33 7 48 34 75 29 29 41 34 81 34 40 0 52 -5 81 -34z"/>
<path d="M11898 2184 c-11 -11 -10 -164 1 -164 11 0 21 25 21 51 0 28 19 23
38 -11 17 -30 40 -45 50 -35 3 3 -2 19 -11 34 -16 28 -16 31 0 60 17 28 17 32
2 46 -18 18 -90 31 -101 19z m77 -44 c0 -10 -12 -16 -32 -18 -32 -3 -45 13
-26 32 13 12 58 2 58 -14z"/>
<path d="M1680 1989 c-121 -20 -262 -124 -315 -233 -105 -216 -10 -474 212
-579 59 -27 81 -32 170 -35 77 -3 114 0 155 13 62 20 153 73 186 108 l22 24
-47 39 c-69 58 -66 57 -123 19 -97 -66 -199 -74 -298 -24 -103 51 -154 134
-154 246 0 156 122 275 282 275 78 0 136 -21 191 -70 l35 -30 54 45 c30 25 56
49 58 53 5 14 -81 80 -143 111 -57 28 -152 50 -205 48 -14 -1 -50 -5 -80 -10z"/>
<path d="M5542 1990 c-165 -24 -315 -169 -351 -338 -29 -139 12 -283 108 -380
56 -56 100 -83 178 -112 53 -19 77 -22 160 -18 85 3 107 8 168 36 38 18 78 40
87 49 17 15 18 13 18 -30 l0 -47 80 0 79 0 3 343 c2 188 2 377 0 420 l-4 77
-79 0 -79 0 0 -45 c0 -48 -4 -53 -29 -31 -37 32 -121 66 -186 76 -78 11 -78
11 -153 0z m213 -175 c49 -24 107 -83 131 -133 9 -20 19 -68 22 -107 4 -64 1
-75 -30 -135 -121 -234 -470 -186 -528 74 -28 127 50 265 177 312 53 20 177
14 228 -11z"/>
<path d="M3137 1983 c-14 -13 -7 -429 8 -510 22 -118 67 -198 143 -255 83 -63
150 -82 259 -75 66 4 95 11 150 38 37 18 72 35 77 37 15 8 0 -239 -19 -290
-48 -135 -212 -196 -345 -128 -50 25 -96 94 -106 156 l-6 44 -80 0 -80 0 7
-47 c24 -159 135 -290 276 -323 80 -19 214 -8 282 23 73 33 150 106 181 171
51 106 56 169 54 686 l-3 475 -77 3 -76 3 -4 -248 c-5 -262 -10 -296 -58 -364
-34 -47 -102 -81 -173 -86 -54 -4 -69 -1 -117 24 -34 17 -65 43 -82 68 -48 70
-58 135 -58 382 l0 223 -73 0 c-41 0 -77 -3 -80 -7z"/>
<path d="M4657 1983 c-7 -11 -6 -658 1 -756 l5 -78 76 3 76 3 5 240 c6 272 9
286 90 359 55 50 100 68 185 75 l70 6 -1 45 c-1 25 -2 60 -3 79 l-1 34 -77 -6
c-90 -6 -170 -33 -224 -77 l-38 -30 -3 52 -3 53 -77 3 c-42 2 -78 -1 -81 -5z"/>
<path d="M10893 1830 c-23 -5 -54 -15 -70 -24 -56 -28 -132 -106 -160 -164
-24 -50 -28 -69 -28 -147 0 -76 4 -99 26 -145 50 -106 123 -166 240 -196 104
-27 220 -3 294 60 l40 35 -44 45 c-44 45 -45 45 -63 26 -32 -34 -79 -52 -137
-52 -94 0 -163 39 -202 114 -79 153 28 338 196 338 49 0 126 -27 139 -49 12
-18 29 -12 71 25 l40 35 -38 34 c-21 18 -54 41 -72 50 -41 19 -173 28 -232 15z"/>
<path d="M11310 1770 l0 -60 197 -2 197 -3 -96 -110 c-52 -60 -143 -164 -202
-230 -103 -116 -106 -121 -106 -167 l0 -48 300 0 300 0 0 60 0 60 -205 0
c-113 0 -205 2 -205 5 0 6 182 217 319 370 76 85 80 92 81 138 l0 47 -290 0
-290 0 0 -60z"/>
<path d="M10446 1269 c-19 -15 -26 -30 -26 -54 0 -35 36 -75 67 -75 20 0 73
55 73 75 0 20 -53 75 -73 75 -8 0 -26 -9 -41 -21z"/>
</g>
</svg>
